USFL
nRows=154
nColumns=2
inDegrees=yes
endheader
time	soleus_r	
4.5	 38.140539	
4.5625	 38.060384	
4.625	 37.872860	
4.6875	 37.807962	
4.75	 37.753407	
4.8125	 37.773871	
4.875	 37.885119	
4.9375	 37.867891	
5	 37.873228	
5.0625	 37.790226	
5.125	 37.694812	
5.1875	 37.613810	
5.25	 37.623107	
5.3125	 37.557235	
5.375	 37.472890	
5.4375	 37.509192	
5.5	 37.464215	
5.5625	 37.565558	
5.625	 37.575395	
5.6875	 37.616112	
5.75	 37.622017	
5.8125	 37.652453	
5.875	 35.092210	
5.9375	 35.005653	
6	 34.920996	
6.0625	 34.886186	
6.125	 34.635913	
6.1875	 30.185593	
6.25	 30.204420	
6.3125	 30.276260	
6.375	 30.202364	
6.4375	 29.474218	
6.5	 29.388636	
6.5625	 28.725690	
6.625	 28.836222	
6.6875	 28.848420	
6.75	 27.521858	
6.8125	 27.458355	
6.875	 26.006680	
6.9375	 25.982843	
7	 24.696774	
7.0625	 24.618632	
7.125	 24.469853	
7.1875	 24.389842	
7.25	 24.194008	
7.3125	 23.937902	
7.375	 23.935116	
7.4375	 23.879428	
7.5	 23.969499	
7.5625	 24.025623	
7.625	 24.101261	
7.6875	 24.175955	
7.75	 24.131806	
7.8125	 24.185556	
7.875	 24.301044	
7.9375	 24.330017	
8	 24.425298	
8.0625	 24.477838	
8.125	 24.478967	
8.1875	 24.446772	
8.25	 24.492451	
8.3125	 24.516696	
8.375	 24.625524	
8.4375	 24.611787	
8.5	 24.570896	
8.5625	 24.494683	
8.625	 24.428460	
8.6875	 24.449199	
8.75	 24.413807	
8.8125	 24.511531	
8.875	 24.513749	
8.9375	 24.604099	
9	 24.678283	
9.0625	 24.666167	
9.125	 24.633285	
9.1875	 24.594467	
9.25	 24.656863	
9.3125	 24.731445	
9.375	 24.768249	
9.4375	 24.730203	
9.5	 24.742715	
9.5625	 24.782238	
9.625	 24.818839	
9.6875	 24.871081	
9.75	 24.814528	
9.8125	 24.864506	
9.875	 24.887001	
9.9375	 24.915749	
10	 24.883903	
10.0625	 24.773501	
10.125	 24.748715	
10.1875	 24.800123	
10.25	 24.712009	
10.3125	 24.730350	
10.375	 24.688631	
10.4375	 24.735839	
10.5	 24.698869	
10.5625	 24.658947	
10.625	 24.636412	
10.6875	 24.712117	
10.75	 24.676168	
10.8125	 24.670259	
10.875	 24.569315	
10.9375	 24.589881	
11	 24.568953	
11.0625	 24.617266	
11.125	 24.587928	
11.1875	 24.413848	
11.25	 24.406555	
11.3125	 27.002349	
11.375	 28.538799	
11.4375	 31.822465	
11.5	 31.724873	
11.5625	 31.758971	
11.625	 31.765244	
11.6875	 31.830183	
11.75	 31.732765	
11.8125	 31.830880	
11.875	 31.930753	
11.9375	 34.256108	
12	 34.372855	
12.0625	 34.336598	
12.125	 34.412605	
12.1875	 34.208967	
12.25	 34.241591	
12.3125	 34.124334	
12.375	 33.999375	
12.4375	 33.903593	
12.5	 33.957872	
12.5625	 33.829168	
12.625	 33.764362	
12.6875	 33.691204	
12.75	 33.832639	
12.8125	 33.794983	
12.875	 33.810770	
12.9375	 33.829738	
13	 33.692852	
13.0625	 33.626527	
13.125	 33.565373	
13.1875	 33.517108	
13.25	 33.517974	
13.3125	 33.392878	
13.375	 33.355404	
13.4375	 33.258512	
13.5	 33.249903	
13.5625	 33.264275	
13.625	 33.499992	
13.6875	 33.660931	
13.75	 33.680166	
13.8125	 33.597102	
13.875	 33.645486	
13.9375	 33.593968	
14	 33.625577	
14.0625	 33.610049	
